<svg width="1920" height="125" viewBox="0 0 1920 125" fill="none" xmlns="http://www.w3.org/2000/svg">
<g opacity="0.3">
<path d="M-39 2.80029H83.4528C96.5236 2.80029 106.155 4.40091 112.117 7.80223C121.06 12.8042 125.646 22.4079 125.646 36.4133C125.646 42.6157 124.27 47.8177 121.748 52.0194C119.226 56.221 115.786 59.0221 111.658 60.8228C124.27 65.8247 130.691 75.2284 130.691 89.2338C130.691 101.439 127.481 110.042 121.06 115.044C114.639 120.046 103.862 122.447 88.4976 122.447H-39V2.80029ZM3.19347 31.8115V47.6177H77.9493C81.389 47.6177 83.9114 47.0174 85.7459 45.817C87.5804 44.6165 88.4976 42.6157 88.4976 39.6146C88.4976 36.8135 87.5804 34.8127 85.7459 33.6122C83.9114 32.4118 81.389 31.6115 77.9493 31.6115H3.19347V31.8115ZM3.19347 74.428V93.4354H76.1148C79.7838 93.4354 82.7648 92.6351 85.058 91.0345C87.3511 89.4339 88.4976 87.233 88.4976 84.4319C88.4976 80.4304 87.5804 77.8294 85.5166 76.4288C83.4528 75.0283 80.4717 74.428 76.1148 74.428H3.19347Z" stroke="#B8B8B8" stroke-miterlimit="10"/>
<path d="M135.047 122.447V2.80029H282.495V31.8115H177.011V48.418H277.679V77.2292H177.24V93.6355H282.724V122.647H135.047V122.447Z" stroke="#B8B8B8" stroke-miterlimit="10"/>
<path d="M378.579 95.2365C398.758 95.2365 410.453 94.8363 413.663 94.2361C416.874 93.6358 418.479 91.435 418.479 87.8336C418.479 83.832 416.415 81.031 412.517 79.8305C407.472 78.2299 396.006 77.4296 378.349 77.4296C343.265 77.4296 321.251 75.2287 311.849 70.827C302.676 66.4253 297.861 55.221 297.861 37.6142C297.861 21.2078 303.823 10.8038 315.976 6.20201C325.149 2.8007 345.558 1 377.203 1C411.6 1 432.926 3.00077 441.64 6.80224C452.188 11.6041 457.462 23.6088 457.462 42.6161H415.269C415.269 36.2136 413.663 32.6122 410.453 31.4118C407.243 30.2113 396.236 29.8111 377.432 29.8111C358.858 29.8111 348.08 30.2113 344.87 30.8115C341.659 31.4118 340.054 33.8127 340.054 37.6142C340.054 41.6157 342.347 44.4168 346.934 45.6173C351.52 46.8177 362.068 47.618 378.12 47.618C413.205 47.618 435.677 50.019 445.538 54.6207C455.398 59.4226 460.443 70.4269 460.443 87.8336C460.443 103.64 454.71 113.844 443.474 118.445C433.843 122.247 411.829 124.048 377.891 124.048C341.43 124.048 318.957 122.047 310.473 117.845C300.842 113.243 295.797 101.239 295.797 81.8313H337.99C337.99 88.2337 339.825 92.2353 343.265 93.2357C346.704 94.2361 358.858 95.2365 378.579 95.2365Z" stroke="#B8B8B8" stroke-miterlimit="10"/>
<path d="M474.66 33.8123V2.80029H637.701V33.8123H577.392V122.447H535.428V33.8123H474.66Z" stroke="#B8B8B8" stroke-miterlimit="10"/>
<path d="M705 2.80029H827.453C840.524 2.80029 850.155 4.40091 856.117 7.80223C865.06 12.8042 869.646 22.4079 869.646 36.4133C869.646 42.6157 868.27 47.8177 865.748 52.0194C863.225 56.221 859.786 59.0221 855.658 60.8228C868.27 65.8247 874.691 75.2284 874.691 89.2338C874.691 101.439 871.481 110.042 865.06 115.044C858.639 120.046 847.862 122.447 832.498 122.447H705V2.80029ZM747.193 31.8115V47.6177H821.949C825.389 47.6177 827.911 47.0174 829.746 45.817C831.58 44.6165 832.498 42.6157 832.498 39.6146C832.498 36.8135 831.58 34.8127 829.746 33.6122C827.911 32.4118 825.389 31.6115 821.949 31.6115H747.193V31.8115ZM747.193 74.428V93.4354H820.115C823.784 93.4354 826.765 92.6351 829.058 91.0345C831.351 89.4339 832.498 87.233 832.498 84.4319C832.498 80.4304 831.58 77.8294 829.517 76.4288C827.453 75.0283 824.472 74.428 820.115 74.428H747.193Z" stroke="#B8B8B8" stroke-miterlimit="10"/>
<path d="M879.047 122.447V2.80029H1026.49V31.8115H921.011V48.418H1021.68V77.2292H921.24V93.6355H1026.72V122.647H879.047V122.447Z" stroke="#B8B8B8" stroke-miterlimit="10"/>
<path d="M1122.58 95.2365C1142.76 95.2365 1154.45 94.8363 1157.66 94.2361C1160.87 93.6358 1162.48 91.435 1162.48 87.8336C1162.48 83.832 1160.42 81.031 1156.52 79.8305C1151.47 78.2299 1140.01 77.4296 1122.35 77.4296C1087.26 77.4296 1065.25 75.2287 1055.85 70.827C1046.68 66.4253 1041.86 55.221 1041.86 37.6142C1041.86 21.2078 1047.82 10.8038 1059.98 6.20201C1069.15 2.8007 1089.56 1 1121.2 1C1155.6 1 1176.93 3.00077 1185.64 6.80224C1196.19 11.6041 1201.46 23.6088 1201.46 42.6161H1159.27C1159.27 36.2136 1157.66 32.6122 1154.45 31.4118C1151.24 30.2113 1140.24 29.8111 1121.43 29.8111C1102.86 29.8111 1092.08 30.2113 1088.87 30.8115C1085.66 31.4118 1084.05 33.8127 1084.05 37.6142C1084.05 41.6157 1086.35 44.4168 1090.93 45.6173C1095.52 46.8177 1106.07 47.618 1122.12 47.618C1157.2 47.618 1179.68 50.019 1189.54 54.6207C1199.4 59.4226 1204.44 70.4269 1204.44 87.8336C1204.44 103.64 1198.71 113.844 1187.47 118.445C1177.84 122.247 1155.83 124.048 1121.89 124.048C1085.43 124.048 1062.96 122.047 1054.47 117.845C1044.84 113.243 1039.8 101.239 1039.8 81.8313H1081.99C1081.99 88.2337 1083.82 92.2353 1087.26 93.2357C1090.7 94.2361 1102.86 95.2365 1122.58 95.2365Z" stroke="#B8B8B8" stroke-miterlimit="10"/>
<path d="M1218.66 33.8123V2.80029H1381.7V33.8123H1321.39V122.447H1279.43V33.8123H1218.66Z" stroke="#B8B8B8" stroke-miterlimit="10"/>
<path d="M1449 2.80029H1571.45C1584.52 2.80029 1594.15 4.40091 1600.12 7.80223C1609.06 12.8042 1613.65 22.4079 1613.65 36.4133C1613.65 42.6157 1612.27 47.8177 1609.75 52.0194C1607.23 56.221 1603.79 59.0221 1599.66 60.8228C1612.27 65.8247 1618.69 75.2284 1618.69 89.2338C1618.69 101.439 1615.48 110.042 1609.06 115.044C1602.64 120.046 1591.86 122.447 1576.5 122.447H1449V2.80029ZM1491.19 31.8115V47.6177H1565.95C1569.39 47.6177 1571.91 47.0174 1573.75 45.817C1575.58 44.6165 1576.5 42.6157 1576.5 39.6146C1576.5 36.8135 1575.58 34.8127 1573.75 33.6122C1571.91 32.4118 1569.39 31.6115 1565.95 31.6115H1491.19V31.8115ZM1491.19 74.428V93.4354H1564.11C1567.78 93.4354 1570.76 92.6351 1573.06 91.0345C1575.35 89.4339 1576.5 87.233 1576.5 84.4319C1576.5 80.4304 1575.58 77.8294 1573.52 76.4288C1571.45 75.0283 1568.47 74.428 1564.11 74.428H1491.19Z" stroke="#B8B8B8" stroke-miterlimit="10"/>
<path d="M1623.05 122.447V2.80029H1770.49V31.8115H1665.01V48.418H1765.68V77.2292H1665.24V93.6355H1770.72V122.647H1623.05V122.447Z" stroke="#B8B8B8" stroke-miterlimit="10"/>
<path d="M1866.58 95.2365C1886.76 95.2365 1898.45 94.8363 1901.66 94.2361C1904.87 93.6358 1906.48 91.435 1906.48 87.8336C1906.48 83.832 1904.42 81.031 1900.52 79.8305C1895.47 78.2299 1884.01 77.4296 1866.35 77.4296C1831.26 77.4296 1809.25 75.2287 1799.85 70.827C1790.68 66.4253 1785.86 55.221 1785.86 37.6142C1785.86 21.2078 1791.82 10.8038 1803.98 6.20201C1813.15 2.8007 1833.56 1 1865.2 1C1899.6 1 1920.93 3.00077 1929.64 6.80224C1940.19 11.6041 1945.46 23.6088 1945.46 42.6161H1903.27C1903.27 36.2136 1901.66 32.6122 1898.45 31.4118C1895.24 30.2113 1884.24 29.8111 1865.43 29.8111C1846.86 29.8111 1836.08 30.2113 1832.87 30.8115C1829.66 31.4118 1828.05 33.8127 1828.05 37.6142C1828.05 41.6157 1830.35 44.4168 1834.93 45.6173C1839.52 46.8177 1850.07 47.618 1866.12 47.618C1901.2 47.618 1923.68 50.019 1933.54 54.6207C1943.4 59.4226 1948.44 70.4269 1948.44 87.8336C1948.44 103.64 1942.71 113.844 1931.47 118.445C1921.84 122.247 1899.83 124.048 1865.89 124.048C1829.43 124.048 1806.96 122.047 1798.47 117.845C1788.84 113.243 1783.8 101.239 1783.8 81.8313H1825.99C1825.99 88.2337 1827.82 92.2353 1831.26 93.2357C1834.7 94.2361 1846.86 95.2365 1866.58 95.2365Z" stroke="#B8B8B8" stroke-miterlimit="10"/>
</g>
</svg>
