<svg width="907" height="148" viewBox="0 0 907 148" fill="none" xmlns="http://www.w3.org/2000/svg">
<g opacity="0.2">
<path d="M87.5308 1.18604C127.747 1.18604 152.587 4.50655 162.05 11.3848C170.329 17.3142 174.351 32.7309 174.351 57.8719H130.823C130.823 49.5706 128.694 44.3527 124.199 42.2181C118.758 39.1347 106.456 37.9489 87.5308 37.9489C66.4762 37.9489 53.9382 39.6091 50.1531 42.6924C46.368 46.013 44.4755 56.4489 44.4755 74.0001C44.4755 91.7886 46.368 102.224 49.9165 105.308C53.465 108.391 66.0031 110.051 87.2942 110.051C106.456 110.051 118.521 108.866 123.489 106.494C128.22 104.122 130.823 98.6668 130.823 90.1283H174.351C174.351 115.269 170.329 130.923 162.523 136.616C153.06 143.257 128.22 146.814 87.5308 146.814C46.8411 146.814 22.4747 143.019 13.9582 135.667C5.44181 128.314 1.18359 107.68 1.18359 73.763C1.18359 40.3206 5.20524 19.9232 13.4851 12.5707C22.2381 4.98091 47.0777 1.18604 87.5308 1.18604Z" stroke="#404141" stroke-miterlimit="10"/>
<path d="M242.011 3.08301H316.056L386.553 144.916H335.691L322.207 121.198H236.096L222.612 144.916H171.75L242.011 3.08301ZM282.464 34.8651H275.603L252.183 84.4356H305.647L282.464 34.8651Z" stroke="#404141" stroke-miterlimit="10"/>
<path d="M472.19 112.66C493.008 112.66 505.073 112.186 508.385 111.474C511.697 110.763 513.353 108.154 513.353 103.885C513.353 99.141 511.224 95.8205 507.202 94.3974C501.997 92.5 490.169 91.5513 471.953 91.5513C435.759 91.5513 413.048 88.9423 403.349 83.7244C393.886 78.5064 388.918 65.2244 388.918 44.3526C388.918 24.9039 395.069 12.5705 407.607 7.1154C417.07 3.08335 438.124 0.94873 470.771 0.94873C506.256 0.94873 528.256 3.32053 537.246 7.82694C548.128 13.5192 553.569 27.75 553.569 50.2821H510.041C510.041 42.6923 508.385 38.4231 505.073 37C501.761 35.5769 490.406 35.1026 471.007 35.1026C451.845 35.1026 440.726 35.5769 437.414 36.2885C434.103 37 432.447 39.8462 432.447 44.3526C432.447 49.0962 434.812 52.4167 439.544 53.8398C444.275 55.2628 455.157 56.2116 471.717 56.2116C507.912 56.2116 531.095 59.0577 541.268 64.5128C551.44 70.2051 556.645 83.25 556.645 103.885C556.645 122.622 550.73 134.718 539.139 140.173C529.203 144.679 506.492 146.814 471.48 146.814C433.866 146.814 410.682 144.442 401.929 139.462C391.994 134.006 386.789 119.776 386.789 96.7692H430.317C430.317 104.359 432.21 109.103 435.759 110.288C439.307 111.474 451.609 112.66 472.19 112.66Z" stroke="#404141" stroke-miterlimit="10"/>
<path d="M569.656 144.916V3.08301H721.769V37.474H612.948V57.1599H716.801V91.3138H612.948V110.763H721.769V145.154H569.656V144.916Z" stroke="#404141" stroke-miterlimit="10"/>
<path d="M821.127 112.66C841.945 112.66 854.01 112.186 857.322 111.474C860.634 110.763 862.29 108.154 862.29 103.885C862.29 99.141 860.161 95.8205 856.139 94.3974C850.935 92.5 839.107 91.5513 820.891 91.5513C784.696 91.5513 761.986 88.9423 752.286 83.7244C742.824 78.5064 737.856 65.2244 737.856 44.3526C737.856 24.9039 744.006 12.5705 756.544 7.1154C766.007 3.08335 787.062 0.94873 819.708 0.94873C855.193 0.94873 877.194 3.32053 886.184 7.82694C897.066 13.5192 902.507 27.75 902.507 50.2821H858.978C858.978 42.6923 857.322 38.4231 854.01 37C850.698 35.5769 839.343 35.1026 819.945 35.1026C800.783 35.1026 789.664 35.5769 786.352 36.2885C783.04 37 781.384 39.8462 781.384 44.3526C781.384 49.0962 783.75 52.4167 788.481 53.8398C793.212 55.2628 804.095 56.2116 820.654 56.2116C856.849 56.2116 880.033 59.0577 890.205 64.5128C900.378 70.2051 905.582 83.25 905.582 103.885C905.582 122.622 899.668 134.718 888.076 140.173C878.14 144.679 855.43 146.814 820.418 146.814C782.803 146.814 759.62 144.442 750.867 139.462C740.931 134.006 735.727 119.776 735.727 96.7692H779.255C779.255 104.359 781.148 109.103 784.696 110.288C788.245 111.474 800.546 112.66 821.127 112.66Z" stroke="#404141" stroke-miterlimit="10"/>
</g>
</svg>
