<svg width="19" height="19" viewBox="0 0 19 19" fill="none" xmlns="http://www.w3.org/2000/svg">
<path d="M9 18.0409C6.54 18.0409 6.25 18.0279 5.29 17.9859C4.54137 17.9613 3.80243 17.8091 3.105 17.5359C1.89831 17.0663 0.94414 16.1117 0.475 14.9049C0.212306 14.2049 0.0706179 13.4654 0.056 12.7179C0 11.7599 0 11.4459 0 9.00488C0 6.53788 0.013 6.24988 0.056 5.29488C0.0709376 4.5484 0.212621 3.80989 0.475 3.11088C0.943631 1.90241 1.89935 0.947055 3.108 0.478883C3.80664 0.215085 4.54535 0.0730271 5.292 0.0588828C6.247 0.00488281 6.561 0.00488281 9 0.00488281C11.48 0.00488281 11.765 0.0178828 12.71 0.0588828C13.4586 0.0731494 14.1992 0.215192 14.9 0.478883C16.1083 0.947586 17.0638 1.90276 17.533 3.11088C17.8001 3.82008 17.9426 4.57013 17.954 5.32788C18.01 6.28588 18.01 6.59888 18.01 9.03888C18.01 11.4789 17.996 11.7989 17.954 12.7459C17.9391 13.4941 17.7971 14.2343 17.534 14.9349C17.0637 16.1426 16.1081 17.0975 14.9 17.5669C14.2002 17.8291 13.4611 17.9707 12.714 17.9859C11.759 18.0409 11.446 18.0409 9 18.0409ZM8.966 1.58788C6.52 1.58788 6.266 1.59988 5.311 1.64288C4.74098 1.65043 4.17648 1.75562 3.642 1.95388C2.85275 2.25589 2.22823 2.87787 1.923 3.66588C1.72321 4.20618 1.61801 4.77686 1.612 5.35288C1.559 6.32188 1.559 6.57588 1.559 9.00488C1.559 11.4049 1.568 11.6959 1.612 12.6589C1.62095 13.2291 1.7261 13.7937 1.923 14.3289C2.22868 15.1164 2.85309 15.7379 3.642 16.0399C4.17611 16.2395 4.74085 16.3447 5.311 16.3509C6.279 16.4069 6.534 16.4069 8.966 16.4069C11.419 16.4069 11.673 16.3949 12.62 16.3509C13.1904 16.3439 13.7553 16.2387 14.29 16.0399C15.0745 15.7353 15.6949 15.1152 16 14.3309C16.1994 13.7901 16.3046 13.2192 16.311 12.6429H16.322C16.365 11.6869 16.365 11.4319 16.365 8.98888C16.365 6.54588 16.354 6.28888 16.311 5.33388C16.302 4.76433 16.1969 4.20039 16 3.66588C15.6956 2.88046 15.0751 2.25918 14.29 1.95388C13.7555 1.75462 13.1904 1.6494 12.62 1.64288C11.653 1.58788 11.4 1.58788 8.966 1.58788ZM9 13.6239C7.12999 13.6251 5.44342 12.4996 4.72686 10.7723C4.01031 9.04506 4.40491 7.05621 5.72663 5.73334C7.04836 4.41047 9.03686 4.01415 10.7648 4.72921C12.4927 5.44428 13.6196 7.12987 13.62 8.99988C13.6172 11.5509 11.5511 13.6189 9 13.6239ZM9 5.99788C7.34315 5.99788 6 7.34103 6 8.99788C6 10.6547 7.34315 11.9979 9 11.9979C10.6569 11.9979 12 10.6547 12 8.99788C11.9962 7.34263 10.6553 6.00173 9 5.99788ZM13.8 5.28489C13.2054 5.28268 12.7249 4.79947 12.726 4.20489C12.7271 3.61031 13.2094 3.12889 13.804 3.12889C14.3986 3.12889 14.8809 3.6103 14.882 4.20488C14.8823 4.49174 14.7683 4.76691 14.5653 4.96956C14.3622 5.17222 14.0869 5.28568 13.8 5.28489Z" fill="#F2F2F2"/>
</svg>
