<svg width="140" height="16" viewBox="0 0 140 16" fill="none" xmlns="http://www.w3.org/2000/svg">
<g clip-path="url(#clip0)">
<path fill-rule="evenodd" clip-rule="evenodd" d="M15.5964 16.004V13.7171H10.3961V2.28692H15.5964V4.66559e-05H-0.00390625V2.28692H5.19593V13.7171H-0.00390625V16.004H15.5964ZM23.3963 16.004V8.93659H25.9964V11.2235H28.5961V13.5103H31.1963V16.004H36.3965V4.66559e-05H31.1963V6.85666H28.5961V4.57369H25.9964V2.28692H23.3963V4.66559e-05H18.1961V16.004H23.3963V16.004ZM54.5965 16.004V13.7171H57.1966V11.4303H51.9964V13.7171H46.7965V11.4303H44.1964V4.57369H46.7965V2.28692H51.9964V4.57369H57.1966V2.28692H54.5965V4.66559e-05H44.1964V2.28692H41.5963V4.57369H38.9966V11.4303H41.5963V13.7171H44.1964V16.004H54.5965V16.004ZM64.9965 16.004V11.4303H72.7969V16.004H77.9967V4.57369H75.3966V2.28692H72.7969V4.66559e-05H64.9965V2.28692H62.3964V4.57369H59.7967V16.004H64.9965ZM64.9965 4.57369H67.5967V2.28692H70.1968V4.57369H72.7969V9.14343H64.9965V4.57369V4.57369ZM93.597 16.004V13.7171H96.1971V11.4303H98.7968V4.57369H96.1971V2.28692H93.597V4.66559e-05H80.5968V16.004H93.597V16.004ZM85.7967 2.28692H90.9969V4.57369H93.597V11.4303H90.9969V13.7171H85.7967V2.28692V2.28692ZM119.597 16.004V13.7171H106.597V9.14343H116.997V6.85666H106.597V2.28692H119.597V4.66559e-05H101.397V16.004H119.597ZM132.055 4.66559e-05C133.633 -0.00536012 135.177 0.459273 136.491 1.33503C137.806 2.21079 138.832 3.45831 139.439 4.91963C140.047 6.38096 140.209 7.99032 139.904 9.54397C139.6 11.0976 138.843 12.5256 137.729 13.6471C136.615 14.7687 135.194 15.5334 133.647 15.8443C132.1 16.1552 130.496 15.9983 129.037 15.3936C127.579 14.7889 126.332 13.7636 125.455 12.4475C124.578 11.1313 124.11 9.58346 124.11 8.00005C124.106 5.88197 124.941 3.84921 126.431 2.34894C127.921 0.848672 129.944 0.00376946 132.055 4.66559e-05Z" fill="white"/>
</g>
<defs>
<clipPath id="clip0">
<rect width="140" height="16" fill="white"/>
</clipPath>
</defs>
</svg>
