<svg width="26" height="30" viewBox="0 0 26 30" fill="none" xmlns="http://www.w3.org/2000/svg">
<path d="M13.0016 0C9.50156 0 6.60156 2.6 6.10156 6H8.10156C8.60156 3.7 10.6016 2 13.0016 2C15.4016 2 17.4016 3.7 17.9016 6H19.9016C19.4016 2.6 16.5016 0 13.0016 0Z" fill="white"/>
<path d="M23 8C23.6 8 24 8.4 24 9V27C24 27.6 23.6 28 23 28H3C2.4 28 2 27.6 2 27V9C2 8.4 2.4 8 3 8H23ZM23 6H3C1.3 6 0 7.3 0 9V27C0 28.7 1.3 30 3 30H23C24.7 30 26 28.7 26 27V9C26 7.3 24.7 6 23 6Z" fill="white"/>
<path d="M15.678 12.256V13.642H11.772L11.324 16.162C11.7627 15.6953 12.3787 15.462 13.172 15.462C14.0773 15.462 14.81 15.756 15.37 16.344C15.93 16.932 16.21 17.7067 16.21 18.668C16.21 19.704 15.8833 20.5487 15.23 21.202C14.5767 21.8553 13.7367 22.182 12.71 22.182C11.7393 22.182 10.9507 21.916 10.344 21.384C9.74667 20.8427 9.42933 20.1193 9.392 19.214H10.974C11.0113 19.718 11.1933 20.1193 11.52 20.418C11.8467 20.7167 12.2573 20.866 12.752 20.866C13.3307 20.866 13.7787 20.684 14.096 20.32C14.4133 19.9467 14.572 19.424 14.572 18.752C14.572 18.0987 14.4087 17.5947 14.082 17.24C13.7553 16.876 13.3027 16.694 12.724 16.694C12.024 16.694 11.478 16.988 11.086 17.576L9.686 17.534L10.624 12.256H15.678Z" fill="white"/>
</svg>
