<svg width="24" height="24" viewBox="0 0 24 24" fill="none" xmlns="http://www.w3.org/2000/svg">
<path d="M3.23741 11.4575C8.06923 9.34063 11.2912 7.94509 12.9033 7.27083C17.5063 5.34569 18.4627 5.01127 19.0861 5.00011C19.2232 4.9978 19.5298 5.03196 19.7284 5.194C19.8961 5.33081 19.9422 5.51563 19.9643 5.64535C19.9864 5.77506 20.0139 6.07056 19.992 6.30145C19.7426 8.93683 18.6633 15.3322 18.1142 18.2839C17.8818 19.5328 17.4244 19.9516 16.9815 19.9926C16.0189 20.0816 15.288 19.3529 14.3558 18.7385C12.897 17.7769 12.0729 17.1783 10.6569 16.24C9.02048 15.1557 10.0813 14.5597 11.0139 13.5857C11.258 13.3308 15.4988 9.45196 15.5809 9.10009C15.5912 9.05608 15.6007 8.89204 15.5038 8.80543C15.4069 8.71881 15.2639 8.74843 15.1606 8.77199C15.0143 8.80538 12.6839 10.3542 8.16938 13.4186C7.5079 13.8753 6.90875 14.0979 6.37193 14.0862C5.78013 14.0734 4.64175 13.7497 3.79548 13.4731C2.75749 13.1338 1.93252 12.9545 2.00436 12.3783C2.04178 12.0781 2.45279 11.7712 3.23741 11.4575Z" fill="white"/>
</svg>
